<svg width="80" height="80" viewBox="0 0 80 80" xmlns="http://www.w3.org/2000/svg">
  <defs>
    <linearGradient id="fashionGradient" x1="0%" y1="0%" x2="100%" y2="100%">
      <stop offset="0%" style="stop-color:#ec4899;stop-opacity:1" />
      <stop offset="100%" style="stop-color:#be185d;stop-opacity:1" />
    </linearGradient>
  </defs>
  <!-- T-Shirt -->
  <path d="M 20 25 L 20 35 Q 20 40 25 40 L 30 40 L 30 50 Q 30 55 35 55 L 45 55 Q 50 55 50 50 L 50 40 L 55 40 Q 60 40 60 35 L 60 25 Q 60 20 55 20 L 45 20 L 40 15 L 35 15 L 25 20 L 20 20 Q 15 20 15 25 Z" 
        fill="url(#fashionGradient)" stroke="#be185d" stroke-width="1.5"/>
  <circle cx="30" cy="30" r="2" fill="#fce7f3"/>
  <circle cx="50" cy="30" r="2" fill="#fce7f3"/>
</svg>

